<svg data-v-423bf9ae="" xmlns="http://www.w3.org/2000/svg" viewBox="0 0 687 90" class="iconLeft"><!----><!----><!----><g data-v-423bf9ae="" id="d8518fd7-b58d-4074-bcea-27a6a0bae683" fill="black" transform="matrix(4.569687698175228,0,0,4.569687698175228,86.34147321586352,-1.907843985892292)"><path d="M0.56 9.18C0.56 11.94 2.83 14.14 5.70 14.14C8.55 14.14 10.82 11.94 10.82 9.18C10.82 6.43 8.55 4.26 5.70 4.26C2.83 4.26 0.56 6.41 0.56 9.18ZM1.69 9.18C1.69 7.03 3.51 5.32 5.70 5.32C7.88 5.32 9.67 7.03 9.67 9.18C9.67 11.34 7.88 13.06 5.70 13.06C3.51 13.06 1.69 11.34 1.69 9.18ZM12.71 14.08L13.79 14.08L13.79 10.46C13.79 8.88 14.70 7.78 16.21 7.74C17.50 7.74 18.26 8.51 18.26 9.83L18.26 14.08L19.36 14.08L19.36 10.46C19.36 8.88 20.24 7.78 21.77 7.74C23.04 7.74 23.81 8.51 23.81 9.83L23.81 14.08L24.91 14.08L24.91 9.53C24.91 7.76 23.88 6.66 22.16 6.66C20.75 6.68 19.71 7.29 19.25 8.60C18.94 7.38 17.99 6.66 16.60 6.66C15.27 6.68 14.28 7.22 13.79 8.37L13.79 6.71L12.71 6.71ZM26.59 10.40C26.59 12.60 28.08 14.13 30.25 14.13C31.49 14.13 32.52 13.68 33.22 12.89L32.62 12.25C32.05 12.85 31.25 13.17 30.34 13.17C28.91 13.17 27.86 12.26 27.66 10.82L33.68 10.82C33.80 8.32 32.62 6.66 30.24 6.68C28.10 6.68 26.59 8.20 26.59 10.40ZM27.66 9.93C27.83 8.53 28.84 7.62 30.24 7.62C31.68 7.62 32.63 8.51 32.70 9.93ZM34.82 10.19C34.82 12.29 36.19 13.76 38.18 13.76C39.42 13.76 40.38 13.20 40.89 12.22L40.89 13.34C40.89 14.88 39.84 15.86 38.23 15.86C37.25 15.85 36.48 15.53 35.76 14.92L35.25 15.76C36.15 16.44 37.11 16.81 38.28 16.83C40.52 16.83 41.99 15.47 41.99 13.31L41.99 6.71L40.89 6.71L40.89 8.20C40.36 7.22 39.41 6.66 38.15 6.66C36.18 6.68 34.82 8.13 34.82 10.19ZM35.84 10.23C35.85 8.71 36.89 7.62 38.37 7.62C39.84 7.62 40.89 8.69 40.89 10.23C40.89 11.75 39.84 12.84 38.37 12.84C36.89 12.84 35.85 11.75 35.84 10.23ZM43.83 11.89C43.83 13.16 44.81 14.14 46.34 14.14C47.52 14.14 48.45 13.75 49.04 12.95L49.04 14.08L50.11 14.08L50.09 9.21C50.08 7.63 49.07 6.66 47.25 6.66C45.99 6.66 45.19 7.03 44.24 7.66L44.70 8.46C45.47 7.92 46.23 7.62 47.04 7.62C48.34 7.62 49.01 8.26 49.01 9.34L49.01 9.77L46.59 9.77C44.86 9.79 43.83 10.60 43.83 11.89ZM44.86 11.84C44.86 11.03 45.50 10.65 46.73 10.65L49.03 10.65L49.03 11.54C48.75 12.56 47.80 13.19 46.55 13.19C45.51 13.19 44.86 12.66 44.86 11.84ZM55.13 4.28L59.11 14.08L60.27 14.08L64.27 4.28L63.10 4.28L59.71 12.78L56.34 4.28ZM64.95 10.40C64.95 12.60 66.44 14.13 68.61 14.13C69.85 14.13 70.88 13.68 71.58 12.89L70.98 12.25C70.41 12.85 69.61 13.17 68.70 13.17C67.27 13.17 66.22 12.26 66.02 10.82L72.04 10.82C72.16 8.32 70.98 6.66 68.60 6.68C66.46 6.68 64.95 8.20 64.95 10.40ZM66.02 9.93C66.19 8.53 67.20 7.62 68.60 7.62C70.04 7.62 70.99 8.51 71.06 9.93ZM73.92 14.08L75.01 14.08L75.01 10.12C75.14 8.72 76.03 7.77 77.49 7.76C78.79 7.76 79.58 8.53 79.58 9.83L79.58 14.08L80.67 14.08L80.67 9.53C80.67 7.76 79.63 6.66 77.87 6.66C76.52 6.68 75.53 7.21 75.01 8.33L75.01 6.71L73.92 6.71ZM82.36 10.39C82.36 12.59 83.82 14.14 85.92 14.14C87.23 14.14 88.24 13.54 88.79 12.50L88.79 14.08L89.88 14.08L89.88 3.70L88.79 3.70L88.79 8.30C88.24 7.25 87.22 6.65 85.90 6.65C83.82 6.65 82.36 8.18 82.36 10.39ZM83.45 10.42C83.45 8.81 84.56 7.64 86.13 7.64C87.68 7.64 88.79 8.81 88.79 10.42C88.79 12.01 87.68 13.16 86.13 13.16C84.56 13.16 83.45 12.01 83.45 10.42ZM91.87 10.39C91.87 12.60 93.42 14.13 95.61 14.13C97.79 14.13 99.34 12.60 99.34 10.39C99.34 8.19 97.79 6.68 95.61 6.68C93.42 6.68 91.87 8.19 91.87 10.39ZM92.96 10.40C92.96 8.79 94.07 7.67 95.61 7.67C97.15 7.67 98.25 8.79 98.25 10.40C98.25 12.03 97.15 13.15 95.61 13.15C94.07 13.15 92.96 12.03 92.96 10.40ZM101.26 14.08L102.35 14.08L102.35 10.16C102.48 8.71 103.45 7.74 105 7.77L105 6.66C103.75 6.68 102.84 7.27 102.35 8.34L102.35 6.71L101.26 6.71ZM110.46 14.08L115.88 14.08L115.88 13.02L111.58 13.02L111.58 4.28L110.46 4.28ZM117.36 4.59C117.36 5.03 117.67 5.35 118.08 5.35C118.48 5.35 118.79 5.03 118.79 4.59C118.79 4.16 118.48 3.84 118.08 3.84C117.67 3.84 117.36 4.16 117.36 4.59ZM117.54 14.08L118.62 14.08L118.62 6.71L117.54 6.71ZM120.30 13.09C121.00 13.76 122.08 14.13 123.13 14.13C124.54 14.13 125.83 13.48 125.83 12.03C125.83 9.38 121.72 10.22 121.72 8.58C121.72 7.90 122.35 7.60 123.17 7.60C123.86 7.60 124.60 7.84 125.17 8.20L125.59 7.34C124.98 6.92 124.12 6.66 123.24 6.66C121.90 6.66 120.68 7.25 120.68 8.67C120.67 11.28 124.80 10.37 124.75 12.15C124.74 12.88 124.04 13.20 123.17 13.20C122.30 13.20 121.35 12.85 120.72 12.26ZM126.83 7.83L127.89 7.83L127.89 12.04C127.89 13.50 128.69 14.14 129.77 14.14C130.35 14.13 130.91 13.93 131.43 13.58L131.12 12.70C130.72 12.95 130.33 13.08 129.95 13.08C129.32 13.08 128.97 12.74 128.97 11.84L128.97 7.83L131.31 7.83L131.31 6.93L128.97 6.94L128.97 5.00L127.89 5.00L127.89 6.94L126.83 6.94Z"></path></g><!----><g data-v-423bf9ae="" id="e00578e3-8c23-4982-bba2-81b1d407b9f1" transform="matrix(1.730602918051012,0,0,1.730602918051012,-51.437009472499966,-40.53227942846665)" stroke="none" fill="black"><path d="M68.895 38.011l-4.474-1.54c-.212-6.918-5.027-12.474-10.932-12.474a9.367 9.367 0 0 0-2.988.502 9.371 9.371 0 0 0-2.988-.502c-6.039 0-10.952 5.807-10.952 12.943 0 .034.008.066.01.1l-5.093.396a1.5 1.5 0 0 0-1.384 1.495v33.331a1.5 1.5 0 0 0 1.384 1.495l28.854 2.24c.039.003.078.005.116.005.164 0 .326-.037.483-.091.039-.014.076-.027.114-.044.035-.016.073-.022.107-.041l7.959-4.23a1.5 1.5 0 0 0 .796-1.324V39.429a1.5 1.5 0 0 0-1.012-1.418zm-7.559-2.602l-.39-.134-.01-.004-.003-.001a1.468 1.468 0 0 0-.325-.069c-.035-.004-.069-.001-.104-.002-.058-.003-.115-.01-.173-.005l-1.959.152c-.344-3.284-1.729-6.188-3.756-8.236 3.45.616 6.185 4.003 6.72 8.299zM50.5 27.732c2.583 1.316 4.487 4.282 4.88 7.847l-9.821.763c.189-3.901 2.175-7.201 4.941-8.61zm-4.117-.622c-2.277 2.301-3.742 5.682-3.832 9.466l-2.986.231c.053-4.941 3.002-9.015 6.818-9.697zm-13.29 13.209l25.854-2.009v34.571l-25.854-2.007V40.319zm33.814 29.052l-4.959 2.636V38.792l4.959 1.708v28.871z"></path><path d="M50.47 48.647h-9a1.5 1.5 0 0 0-1.5 1.5v9a1.5 1.5 0 0 0 1.5 1.5h9a1.5 1.5 0 0 0 1.5-1.5v-9a1.5 1.5 0 0 0-1.5-1.5zm-1.5 9h-6v-6h6v6z"></path></g><!----></svg>